<svg fill="none" height="129" viewBox="0 0 129 129" width="129" xmlns="http://www.w3.org/2000/svg"><g stroke="#fff" stroke-linecap="round" stroke-linejoin="round" stroke-width="4"><path clip-rule="evenodd" d="m51.333 16.5h26.6667c4.4182 0 8 3.5817 8 8 0 10.3093-8.3574 18.6667-18.6667 18.6667h-5.3333c-10.3093 0-18.6667-8.3574-18.6667-18.6667 0-4.4183 3.5817-8 8-8z" fill-rule="evenodd"/><path clip-rule="evenodd" d="m21.999 91.167v-5.3333c0-23.5642 19.1025-42.6667 42.6667-42.6667 11.3159 0 22.1683 4.4952 30.1699 12.4968 8.0014 8.0015 12.4964 18.854 12.4964 30.1699v5.3333c0 11.782-9.5509 21.333-21.333 21.333h-42.6666c-11.7821 0-21.3334-9.551-21.3334-21.333z" fill-rule="evenodd"/><path d="m55.333 77.8337h18.6667"/><path d="m64.6657 87.1667v-18.6667"/></g></svg>