<svg width="129" height="129" viewBox="0 0 129 129" fill="none" xmlns="http://www.w3.org/2000/svg">
<path fill-rule="evenodd" clip-rule="evenodd" d="M32.666 112.5H21.9993C19.0553 112.5 16.666 110.11 16.666 107.166V75.1663C16.666 72.2223 19.0553 69.833 21.9993 69.833H32.666C35.61 69.833 37.9993 72.2223 37.9993 75.1663V107.166C37.9993 110.11 35.61 112.5 32.666 112.5Z" stroke="white" stroke-width="4" stroke-linecap="round" stroke-linejoin="round"/>
<path d="M69.999 91.1667H82.4417C84.751 91.1667 86.9964 90.42 88.8417 89.0334L101.727 79.3694C104.943 76.9587 109.444 77.2787 112.287 80.1214V80.1214C115.444 83.2787 115.444 88.3934 112.287 91.5454L101.231 102.601C98.255 105.577 94.4577 107.609 90.3297 108.436L74.703 111.561C71.6044 112.18 68.4097 112.105 65.343 111.337L51.2097 107.807C49.519 107.38 47.7857 107.167 46.0417 107.167H37.999" stroke="white" stroke-width="4" stroke-linecap="round" stroke-linejoin="round"/>
<path d="M69.999 91.1663H77.919C82.383 91.1663 85.999 87.5503 85.999 83.0863V81.4703C85.999 77.7637 83.4764 74.5317 79.8817 73.6357L67.6577 70.5797C65.6684 70.0837 63.631 69.833 61.583 69.833V69.833C56.639 69.833 51.8017 71.2943 47.6897 74.041L37.999 80.4997" stroke="white" stroke-width="4" stroke-linecap="round" stroke-linejoin="round"/>
<path d="M92.2333 27.9948C98.1443 33.9057 98.1443 43.4893 92.2333 49.4003C86.3223 55.3113 76.7388 55.3113 70.8278 49.4003C64.9168 43.4893 64.9168 33.9057 70.8278 27.9948C76.7388 22.0838 86.3223 22.0838 92.2333 27.9948" stroke="white" stroke-width="4" stroke-linecap="round" stroke-linejoin="round"/>
<path d="M78.698 23.8337C78.202 20.8203 76.826 17.9243 74.5007 15.599C68.5913 9.68966 59.0073 9.68966 53.098 15.599C47.1887 21.5083 47.1887 31.0923 53.098 37.0017C56.778 40.6817 61.8767 42.063 66.6287 41.1617" stroke="white" stroke-width="4" stroke-linecap="round" stroke-linejoin="round"/>
</svg>
