<svg width="129" height="129" viewBox="0 0 129 129" fill="none" xmlns="http://www.w3.org/2000/svg">
<path fill-rule="evenodd" clip-rule="evenodd" d="M38.3013 107.831L20.9981 90.5273C17.998 87.5253 16.3135 83.4547 16.3135 79.2106V49.7903C16.3135 45.5455 18.0014 41.4748 21.0034 38.4736L38.3066 21.1704C41.3078 18.1684 45.3785 16.4805 49.6233 16.4805H79.0436C83.2885 16.4805 87.3592 18.1684 90.3603 21.1704L107.669 38.479C110.669 41.481 112.353 45.5516 112.353 49.7957V79.2106C112.353 83.4547 110.669 87.5253 107.669 90.5273L90.3656 107.836C87.3623 110.837 83.2896 112.522 79.0436 112.52H49.6233C45.3766 112.52 41.3037 110.834 38.3013 107.831V107.831Z" stroke="white" stroke-width="4" stroke-linecap="round" stroke-linejoin="round"/>
<path fill-rule="evenodd" clip-rule="evenodd" d="M72.7633 80.7309L52.8777 85.6076C50.1695 86.2585 47.3177 85.4546 45.3482 83.4851C43.3787 81.5155 42.5748 78.6637 43.2257 75.9556L48.1024 56.0699C49.0526 52.2231 52.0562 49.2196 55.9029 48.2694L75.7886 43.3927C78.4967 42.7418 81.3486 43.5457 83.3181 45.5152C85.2876 47.4847 86.0915 50.3365 85.4406 53.0447L80.5639 72.9303C79.6136 76.7771 76.6101 79.7806 72.7633 80.7309Z" stroke="white" stroke-width="4" stroke-linecap="round" stroke-linejoin="round"/>
<path d="M62.9989 64.4998C62.9989 65.2365 63.5962 65.8337 64.3328 65.8337C65.0695 65.8337 65.6667 65.2365 65.6667 64.4998C65.6667 63.7631 65.0695 63.1659 64.3328 63.1659C63.9777 63.1645 63.6368 63.3053 63.3862 63.5569C63.1355 63.8085 62.9961 64.15 62.9989 64.5052" stroke="white" stroke-width="4" stroke-linecap="round" stroke-linejoin="round"/>
</svg>
