<svg width="128" height="129" viewBox="0 0 128 129" fill="none" xmlns="http://www.w3.org/2000/svg">
<path d="M53.3337 59.166V69.8327" stroke="white" stroke-width="4" stroke-linecap="round" stroke-linejoin="round"/>
<path d="M85.333 107.166H99.9997C103.181 107.167 106.233 105.904 108.484 103.655C110.734 101.406 111.999 98.3548 112 95.1731V33.833C112.001 27.2074 106.632 21.8349 100.006 21.833H85.333" stroke="white" stroke-width="4" stroke-linecap="round" stroke-linejoin="round"/>
<path fill-rule="evenodd" clip-rule="evenodd" d="M16 94.8368V34.1629C16 29.2198 19.4367 24.9415 24.2635 23.8757L56.5269 16.7518C59.6447 16.0634 62.9066 16.8261 65.3959 18.8257C67.8852 20.8253 69.3333 23.846 69.3333 27.0389V101.961C69.3333 105.154 67.8852 108.174 65.3959 110.174C62.9067 112.173 59.6448 112.936 56.5269 112.248L24.2636 105.124C19.4368 104.058 16 99.7799 16 94.8368Z" stroke="white" stroke-width="4" stroke-linecap="round" stroke-linejoin="round"/>
</svg>
