<svg width="37" height="36" viewBox="0 0 37 36" fill="none" xmlns="http://www.w3.org/2000/svg">
<g clip-path="url(#clip0_5480_4123)">
<path d="M13.8968 35.4499C10.6134 34.6529 7.78928 33.0589 5.40754 30.7344C3.26396 28.6423 1.74985 26.185 0.865204 23.3624C-0.223594 19.9088 -0.308657 16.4054 0.746117 12.9518C2.44736 7.28996 6.13907 3.33828 11.7362 1.11338C12.2287 0.925278 12.7347 0.77006 13.2415 0.614611C13.5399 0.523077 13.8386 0.431463 14.1349 0.333008C14.1434 0.357913 14.1477 0.378668 14.1519 0.399423C14.1562 0.420177 14.1605 0.440932 14.169 0.465838C10.4602 3.45451 10.8685 8.12015 13.5565 10.6439C16.1934 13.1179 20.3105 13.1179 22.9474 10.7269C25.7204 8.20317 26.0777 2.95639 22.3179 0.349612C22.4375 0.381147 22.557 0.412083 22.6765 0.44299C23.1859 0.574808 23.6932 0.706078 24.1893 0.88093C29.2931 2.69074 33.0018 5.99487 35.1283 10.8432C37.1868 15.4756 37.2209 20.2243 35.2474 24.9065C33.359 29.4061 30.0586 32.6272 25.4993 34.5699C24.5806 34.9684 23.6619 35.2672 22.7432 35.4997L22.386 35.4167L26.3669 26.8491L20.7528 33.1918L18.337 15.0605L15.7341 33.1918L10.3412 26.8491L14.186 35.4167L13.9478 35.4665C13.9308 35.4499 13.9138 35.4499 13.8968 35.4499Z" fill="#F3F0EE"/>
<path d="M18.7283 9.26581C18.9495 7.75487 20.1744 6.5428 21.7395 6.32695C22.1308 6.26053 22.1308 5.69601 21.7395 5.6462C20.1914 5.43035 18.9495 4.23488 18.7283 2.70734C18.6773 2.30885 18.0818 2.30885 18.0308 2.70734C17.8096 4.21828 16.5847 5.43035 15.0196 5.6462C14.6113 5.69601 14.6113 6.27714 15.0196 6.32695C16.5677 6.5428 17.8096 7.73826 18.0308 9.26581C18.0818 9.6643 18.6773 9.6643 18.7283 9.26581Z" fill="#F3F0EE"/>
</g>
<defs>
<clipPath id="clip0_5480_4123">
<rect width="36.7004" height="36" fill="white"/>
</clipPath>
</defs>
</svg>
