<svg width="24" height="24" viewBox="0 0 24 24" fill="none" xmlns="http://www.w3.org/2000/svg">
<g clip-path="url(#clip0_2849_41220)">
<rect x="-0.584351" y="23.4094" width="33.9323" height="1.66154" transform="rotate(-45 -0.584351 23.4094)" fill="#AE00FF"/>
<rect x="1.80457" y="25.7983" width="33.9323" height="1.66154" transform="rotate(-45 1.80457 25.7983)" fill="#AE00FF"/>
<rect x="4.1936" y="28.1873" width="33.9323" height="1.66154" transform="rotate(-45 4.1936 28.1873)" fill="#AE00FF"/>
<rect x="6.63464" y="30.6284" width="33.9323" height="1.66154" transform="rotate(-45 6.63464 30.6284)" fill="#AE00FF"/>
<rect x="9.02368" y="33.0173" width="33.9323" height="1.66154" transform="rotate(-45 9.02368 33.0173)" fill="#AE00FF"/>
<rect x="11.4257" y="35.4193" width="33.9323" height="1.66154" transform="rotate(-45 11.4257 35.4193)" fill="#AE00FF"/>
<rect x="-2.97327" y="21.0205" width="33.9323" height="1.66154" transform="rotate(-45 -2.97327 21.0205)" fill="#AE00FF"/>
<rect x="-5.36218" y="18.6316" width="33.9323" height="1.66154" transform="rotate(-45 -5.36218 18.6316)" fill="#AE00FF"/>
<rect x="-7.77722" y="16.2166" width="33.9323" height="1.66154" transform="rotate(-45 -7.77722 16.2166)" fill="#AE00FF"/>
<rect x="-10.1792" y="13.8146" width="33.9323" height="1.66154" transform="rotate(-45 -10.1792 13.8146)" fill="#AE00FF"/>
<rect x="-12.5942" y="11.3995" width="33.9323" height="1.66154" transform="rotate(-45 -12.5942 11.3995)" fill="#AE00FF"/>
</g>
<defs>
<clipPath id="clip0_2849_41220">
<rect width="24" height="24" fill="white"/>
</clipPath>
</defs>
</svg>
