<svg width="20" height="16" viewBox="0 0 20 16" fill="none" xmlns="http://www.w3.org/2000/svg">
<path d="M19.9922 1.3886C19.7151 4.19962 18.5158 11.0211 17.9054 14.1695C17.6473 15.5017 17.1389 15.9484 16.6468 15.9921C15.5775 16.0871 14.7652 15.3099 13.7293 14.6544C12.1084 13.6288 11.1927 12.9903 9.61919 11.9895C7.80088 10.8329 8.97965 10.1974 10.0159 9.15802C10.2871 8.88613 14.9994 4.74885 15.0906 4.37352C15.102 4.32656 15.1129 4.1513 15.0049 4.05926C14.8969 3.96722 14.7383 3.99841 14.6236 4.02342C14.461 4.05907 11.8716 5.71115 6.85516 8.97967C6.12021 9.46683 5.45447 9.70419 4.85795 9.69177C4.20036 9.67808 2.93545 9.33292 1.99507 9.03781C0.841707 8.67596 -0.0749853 8.48464 0.0048465 7.87003C0.0464333 7.54985 0.503145 7.2225 1.37498 6.88799C6.74394 4.63009 10.3241 3.14149 12.1154 2.42218C17.2299 0.368702 18.2927 0.0120111 18.9854 0.000111818C19.1378 -0.00232538 19.4785 0.0340899 19.6991 0.206916C19.8459 0.330029 19.9394 0.501832 19.9612 0.688334C19.9986 0.919906 20.009 1.15479 19.9922 1.3886Z" fill="#F4F4F4"/>
</svg>
