<svg width="741" height="181" viewBox="0 0 741 181" fill="none" xmlns="http://www.w3.org/2000/svg">
<path d="M70.051 178.236C53.5 174.229 39.2643 166.215 27.2584 154.527C16.453 144.009 8.82069 131.654 4.36133 117.462C-1.1271 100.099 -1.55588 82.4843 3.76104 65.1205C12.3367 36.6539 30.9459 16.7857 59.1599 5.59945C61.6427 4.65371 64.1935 3.8733 66.7481 3.09174C68.2523 2.63153 69.7579 2.17092 71.2516 1.6759C71.2945 1.80112 71.3159 1.90547 71.3374 2.00982C71.3588 2.11417 71.3802 2.21852 71.4231 2.34374C52.7282 17.3701 54.7863 40.8279 68.3359 53.5169C81.6282 65.9553 102.381 65.9553 115.674 53.9342C129.652 41.2453 131.453 14.8657 112.501 1.75938C113.103 1.91794 113.706 2.07348 114.308 2.22887C116.876 2.89162 119.433 3.55162 121.934 4.43074C147.661 13.53 166.356 30.1425 177.075 54.5186C187.452 77.8095 187.624 101.685 177.676 125.226C168.157 147.849 151.52 164.044 128.537 173.811C123.906 175.815 119.275 177.317 114.645 178.486L112.844 178.069L132.911 134.993L104.611 166.882L92.4335 75.7225L79.3128 166.882L52.1279 134.993L71.5089 178.069L70.3083 178.319C70.2225 178.236 70.1368 178.236 70.051 178.236Z" fill="#F3F0EE"/>
<path d="M94.4059 46.588C95.5208 38.9914 101.695 32.8973 109.585 31.8121C111.557 31.4782 111.557 28.6399 109.585 28.3894C101.781 27.3042 95.5208 21.2937 94.4059 13.6135C94.1487 11.61 91.1472 11.61 90.8899 13.6135C89.7751 21.2102 83.6006 27.3042 75.711 28.3894C73.6528 28.6399 73.6528 31.5617 75.711 31.8121C83.5148 32.8973 89.7751 38.9079 90.8899 46.588C91.1472 48.5915 94.1487 48.5915 94.4059 46.588Z" fill="#F3F0EE"/>
<g clip-path="url(#clip0_186_14179)">
<path fill-rule="evenodd" clip-rule="evenodd" d="M486.46 121.531L486.461 121.508V121.492C486.469 114.814 486.48 106.335 486.48 98.9601H486.51V46.4201C486.51 45.4201 487.31 44.6301 488.3 44.6301C491.551 44.6526 494.919 44.6277 498.333 44.6025C507.068 44.5379 516.104 44.4711 524.25 45.1901C542.37 46.7901 554.95 58.9901 558.36 76.9301C560.49 88.1701 560.09 99.3101 555.54 109.97C550.08 122.76 540.26 130.47 526.58 132.35C520.998 133.119 515.307 133.124 509.623 133.128C507.395 133.13 505.169 133.132 502.95 133.18L488.24 133.23C487.25 133.23 486.45 132.44 486.45 131.45C486.45 129.436 486.455 125.864 486.46 121.531ZM518.33 120.39C529.06 119.72 537.17 114.87 541.37 104.64L541.38 104.62C544.61 96.7201 544.92 88.4401 543.44 80.1501C541.08 66.9301 533.7 59.5801 520.44 57.6801C516.4 57.1001 507.33 57.1601 503.49 57.2201C502.5 57.2401 501.73 58.0401 501.73 59.0201C501.787 65.6286 501.773 73.3985 501.76 80.5643L501.76 80.6121C501.755 83.5136 501.75 86.3154 501.75 88.9001V118.7C501.75 119.69 502.55 120.49 503.54 120.49C504.983 120.484 506.535 120.498 508.117 120.512H508.12C511.659 120.544 515.352 120.577 518.33 120.39Z" fill="#F3F0EE"/>
<path d="M741 93.5201L740.999 93.5401H740C740 93.5401 739.92 95.0901 739.83 95.8701C739.14 102.03 737.84 108.03 734.89 113.54C732.92 117.23 730.34 120.39 726.41 122.16C719.04 125.5 713.29 121.91 713.27 113.95C713.257 109.28 713.261 104.146 713.265 98.9245V98.9222C713.27 91.9143 713.275 84.7476 713.24 78.3301C713.23 77.3401 714.04 76.5401 715.03 76.5401L729.62 76.5601C730.61 76.5601 731.41 75.7601 731.41 74.7701V65.4301C731.41 64.4401 730.61 63.6401 729.62 63.6401H715.06C714.07 63.6401 713.27 62.8401 713.27 61.8501C713.27 59.6479 713.273 56.5542 713.276 53.6056L713.276 53.5377V53.4652C713.278 50.7748 713.28 48.2193 713.28 46.5901C713.28 45.6001 712.48 44.8001 711.49 44.8001H700.94C699.95 44.8001 699.15 45.6001 699.15 46.5901L699.18 61.8401C699.18 62.8301 698.38 63.6301 697.39 63.6301H689.12C688.13 63.6301 687.33 64.4201 687.33 65.4101L687.31 74.7101C687.3 75.7001 688.11 76.5001 689.1 76.5001C690.629 76.4938 692.659 76.4994 694.499 76.5043L694.5 76.5043C695.597 76.5073 696.626 76.5101 697.44 76.5101C698.43 76.5201 699.21 77.3201 699.2 78.3001V116.01C699.22 118.44 699.46 120.92 700.02 123.28C701.46 129.36 705.21 133.24 711.49 134.44C720.13 136.09 728.91 131.8 733.79 123.45C739.007 114.536 740.528 103.635 740.999 93.5401H741.01L741 93.5201Z" fill="#F3F0EE"/>
<path d="M640.53 110.95C640.32 110.18 639.61 109.65 638.81 109.65V109.66H629.33C628.23 109.66 627.39 110.65 627.56 111.74C628.47 117.46 630.64 123.18 635.01 127.07C643.34 134.47 653.35 135.69 663.89 134.3C669.96 133.5 675.42 131.13 679.91 126.79C691.39 115.66 687.62 98.8901 672.4 94.5301C668.748 93.4818 664.927 93.0062 661.108 92.5308C659.353 92.3124 657.598 92.094 655.86 91.8201C654.823 91.6552 653.78 91.5175 652.738 91.3798C650.492 91.0832 648.249 90.7869 646.07 90.2201C642.05 89.1701 640.49 86.5201 641.51 82.4901C641.94 80.7601 643 78.9301 644.3 77.7201C650.14 72.3101 663.06 72.8901 668.46 78.7201C669.51 79.8501 670.31 81.2701 671.04 82.6501C671.73 83.8501 672.21 85.0401 672.52 85.8801C672.78 86.5901 673.45 87.0501 674.2 87.0501H683.35C684.47 87.0501 685.32 86.0201 685.11 84.9201C683.68 77.2801 679.84 70.0001 672.69 66.3601C663.08 61.4701 653.08 61.1701 643.09 64.9401C635.6 67.7601 630.54 73.1301 628.95 81.1501C627.03 90.8501 629.83 98.6301 640.44 101.04C643.621 101.767 646.869 102.191 650.119 102.615C651.876 102.844 653.633 103.073 655.38 103.35C656.491 103.526 657.61 103.683 658.729 103.84C661.991 104.297 665.258 104.755 668.37 105.7C673.13 107.14 674.98 111.81 672.85 116.14C672.03 117.81 670.52 119.35 668.96 120.42C665.15 123.02 660.74 123.44 656.24 123.2C646.88 122.6 642.44 118.18 640.53 110.95Z" fill="#F3F0EE"/>
<path d="M621.1 133.29C622.09 133.29 622.89 132.49 622.89 131.5H622.9V65.3301C622.91 64.3301 622.1 63.5301 621.11 63.5301H610.69C609.71 63.5301 608.91 64.3201 608.91 65.3101V118.82C608.91 119.8 608.11 120.59 607.13 120.59H581.69C580.7 120.59 579.9 119.8 579.9 118.81L579.9 115.303C579.899 104.113 579.896 78.014 579.94 65.3201C579.94 64.3301 579.14 63.5401 578.15 63.5401H567.44C566.45 63.5401 565.65 64.3301 565.65 65.3201C565.71 85.6101 565.71 111.06 565.65 131.51C565.65 132.5 566.45 133.29 567.44 133.29H621.1Z" fill="#F3F0EE"/>
<path d="M445.51 152.43C442.14 152.39 438.78 152.37 435.41 152.37C432.04 152.37 428.57 152.39 425.15 152.43H424.76C423.95 152.43 423.18 152.39 422.65 151.84C422.19 151.37 422.02 150.64 422.06 149.42C422.06 149.42 422.11 144.47 422.08 141.92C422.05 140.99 422.24 140.34 422.68 139.9C423.25 139.31 424.1 139.24 424.69 139.24L437.2 139.28L437.209 139.28C438.711 139.26 438.982 139.256 439.75 137.35C441.35 132.2 441.31 128.5 439.6 124.19C433.83 109.65 415.95 63.5 415.95 63.5L428.67 63.47C430.44 63.47 431.45 64.19 432.05 65.89C434.866 73.8768 439.661 86.8909 443.531 97.3957L443.537 97.4116C445.974 104.025 448.043 109.641 449.02 112.38C449.893 109.887 451.651 105.008 453.747 99.1914L453.747 99.1892L453.749 99.1838C457.731 88.1332 462.931 73.7035 465.59 65.83C466.16 64.14 467.06 63.46 468.7 63.46L481.69 63.5C481.69 63.5 456.24 130.65 449.14 149.79C448.63 151.16 447.85 152.42 445.6 152.42H445.52L445.51 152.43Z" fill="#F3F0EE"/>
<path d="M411.64 129.84V98.3501L411.63 98.3601C411.63 95.9788 411.628 92.6632 411.625 88.828V88.8112C411.615 75.3653 411.6 55.5453 411.67 47.2001C411.69 45.2201 411.06 44.5601 409.11 44.6401C406.02 44.6301 403.23 44.6301 400.12 44.6401C398.33 44.6501 397.58 45.1601 397.58 47.0601C397.63 68.7601 397.62 109.43 397.58 131.13C397.58 132.81 398.2 133.35 399.8 133.31C401.732 133.254 403.67 133.267 405.605 133.279C406.434 133.285 407.262 133.29 408.09 133.29C410.457 133.283 411.64 132.133 411.64 129.84Z" fill="#F3F0EE"/>
<path d="M334.66 65.34C334.66 64.35 335.47 63.55 336.46 63.55H390.12C391.11 63.55 391.91 64.34 391.91 65.33C391.85 85.7801 391.85 111.23 391.91 131.52C391.91 132.51 391.11 133.3 390.12 133.3H379.41C378.42 133.3 377.62 132.51 377.62 131.52C377.665 118.824 377.662 92.719 377.661 81.5319L377.66 78.03C377.66 77.04 376.86 76.25 375.87 76.25H350.43C349.45 76.25 348.65 77.0401 348.65 78.0201V131.53C348.65 132.52 347.85 133.31 346.87 133.31H336.45C335.46 133.31 334.65 132.51 334.66 131.51V65.34Z" fill="#F3F0EE"/>
<path fill-rule="evenodd" clip-rule="evenodd" d="M241 89.3901C240.91 114.28 260.35 133.9 285.14 133.94C310.23 133.98 329.49 114.73 329.54 89.5401C329.59 64.9201 310.22 45.5401 285.51 45.4801C260.66 45.4201 241.09 64.7401 241 89.3901ZM285.84 119.75C269.1 119.85 256.04 106.68 255.97 89.6101C255.9 73.0501 268.95 59.6801 285.28 59.6101C301.45 59.5401 314.69 72.9501 314.79 89.5101C314.89 105.89 301.71 119.65 285.84 119.75Z" fill="#F3F0EE"/>
</g>
<defs>
<clipPath id="clip0_186_14179">
<rect width="500" height="107.86" fill="white" transform="translate(241 44.5701)"/>
</clipPath>
</defs>
</svg>
